#!OML:ASF H:\Terrain\Patient Classification 1\Walking\liu\liu.ASF
:FULLY-SPECIFIED
:DEGREES
314
root 9.198 17.3396 25.9369 6.44166 0.1125 -5.20338
lowerback -5.17111 1.15425 1.3132
upperback -2.63304 1.4575 3.57815
thorax 0.128548 0.741165 3.01962
lowerneck -17.4193 -3.25762 -13.2116
upperneck 23.1792 -3.71875 11.3201
head 10.7993 -1.53525 5.84488
rclavicle 2.48481e-015 2.54444e-014
rhumerus -37.3932 17.9369 -84.7767
rradius 33.2932
rwrist -10.8659
rhand -24.0578 -26.2611
rfingers 7.12502
rthumb 2.42154 -56.2271
lclavicle 2.48481e-015 2.54444e-014
lhumerus -41.3491 -17.7277 97.1985
lradius 28.886
lwrist 5.48066
lhand -14.0635 -24.7237
lfingers 7.12502
lthumb 12.0679 4.90831
rfemur -8.87801 -0.22671 33.4469
rtibia 24.7699
rfoot -13.5329 8.85762
rtoes -11.6054
lfemur -37.0592 8.87665 -16.2089
ltibia 60.8342
lfoot -13.2051 10.9607
ltoes -7.24686
315
root 9.21563 17.3445 26.1263 6.48029 -0.386432 -5.13606
lowerback -5.46426 1.46771 1.44227
upperback -1.5372 1.81553 3.54353
thorax 1.40955 0.912055 2.95851
lowerneck -21.1934 -3.88854 -13.1798
upperneck 23.9947 -4.09497 11.0048
head 11.9017 -1.65955 5.72428
rclavicle 3.27249e-014 3.33958e-014
rhumerus -34.2649 18.6839 -83.8268
rradius 34.0416
rwrist -12.8793
rhand -24.5754 -26.4852
rfingers 7.12502
rthumb 1.92168 -56.4563
lclavicle 3.27249e-014 3.33958e-014
lhumerus -39.9408 -17.6162 96.6109
lradius 27.8893
lwrist 5.37477
lhand -15.2528 -25.4733
lfingers 7.12502
lthumb 10.921 4.22273
rfemur -7.61336 -0.128773 33.2454
rtibia 23.7399
rfoot -13.2081 9.18442
rtoes -10.5081
lfemur -37.4745 8.56045 -16.3634
ltibia 58.5496
lfoot -14.124 10.7788
ltoes -6.23172
316
root 9.2362 17.343 26.3049 6.52247 -0.787597 -5.03499
lowerback -5.198 1.51524 1.5829
upperback -2.10278 1.90468 3.45187
thorax 0.683211 0.95921 2.77043
lowerneck -19.256 -3.53939 -12.9318
upperneck 23.7099 -3.81344 10.6351
head 11.3541 -1.59659 5.55396
rclavicle -1.32099e-014 -1.11319e-014
rhumerus -34.8877 19.4246 -84.1311
rradius 35.4035
rwrist -14.0264
rhand -25.4479 -26.0809
rfingers 7.12502
rthumb 1.07898 -56.0579
lclavicle -1.32099e-014 -1.11319e-014
lhumerus -42.1557 -16.3726 96.3978
lradius 27.3568
lwrist 5.08756
lhand -15.434 -25.8812
lfingers 7.12502
lthumb 10.7461 3.82394
rfemur -6.2213 -0.282902 33.0092
rtibia 22.3834
rfoot -12.5793 9.5029
rtoes -9.79285
lfemur -37.8713 8.09494 -16.5433
ltibia 56.1225
lfoot -14.3914 10.827
ltoes -5.66448
317
root 9.25195 17.343 26.4871 6.94428 -1.06639 -6.10555
lowerback -5.60945 1.56751 2.7622
upperback -1.77314 1.87547 3.68738
thorax 1.28204 0.942 2.37094
lowerneck -21.0855 -3.43753 -12.2494
upperneck 24.3213 -3.58386 10.2269
head 11.8926 -1.44646 5.35372
rclavicle 1.92945e-014 4.33351e-014
rhumerus -33.1523 20.0985 -83.7409
rradius 36.5755
rwrist -14.8252
rhand -26.0717 -25.8314
rfingers 7.12502
rthumb 0.476495 -55.8106
lclavicle 1.92945e-014 4.33351e-014
lhumerus -42.0756 -15.1563 95.3674
lradius 26.4905
lwrist 4.69277
lhand -14.5131 -25.3426
lfingers 7.12502
lthumb 11.6343 4.31436
rfemur -5.35527 -0.407958 34.0606
rtibia 21.2263
rfoot -12.0551 9.66558
rtoes -10.41
lfemur -38.81 7.81904 -15.3822
ltibia 53.5785
lfoot -14.1864 10.7795
ltoes -6.036
318
root 9.25929 17.3396 26.6572 7.52648 -1.42378 -7.54494
lowerback -6.04301 1.79273 4.20971
upperback -1.44288 2.03674 4.06873
thorax 1.89653 1.02921 1.99149
lowerneck -22.4531 -3.61162 -12.1331
upperneck 24.3638 -3.66372 10.0812
head 12.1864 -1.46064 5.27575
rclavicle 1.60519e-014 2.3059e-014
rhumerus -31.0913 20.8792 -83.0793
rradius 37.4569
rwrist -15.9759
rhand -26.5803 -25.8108
rfingers 7.12502
rthumb -0.0147619 -55.7906
lclavicle 1.60519e-014 2.3059e-014
lhumerus -41.7312 -14.0026 94.4604
lradius 25.3822
lwrist 3.884
lhand -13.7619 -24.8586
lfingers 7.12502
lthumb 12.3587 4.75609
rfemur -4.88114 0.292409 35.5689
rtibia 20.3852
rfoot -11.7531 9.47928
rtoes -9.85935
lfemur -39.977 7.72087 -13.7541
ltibia 50.7923
lfoot -13.7079 10.9077
ltoes -6.8983
319
root 9.25857 17.3466 26.8072 7.45176 -1.98082 -6.73031
lowerback -5.32218 1.78003 3.26327
upperback -1.71192 2.14202 3.83371
thorax 1.19169 1.07446 2.25091
lowerneck -21.5595 -3.36407 -12.2343
upperneck 24.0592 -3.47578 10.458
head 11.8739 -1.35314 5.45207
rclavicle -6.72141e-015 -5.1684e-015
rhumerus -30.7945 21.8071 -83.1584
rradius 38.7317
rwrist -17.2297
rhand -26.6227 -27.5068
rfingers 7.12502
rthumb -0.0556616 -57.4865
lclavicle -6.72141e-015 -5.1684e-015
lhumerus -42.9392 -12.6871 93.7145
lradius 24.4578
lwrist 3.08768
lhand -13.5282 -24.6908
lfingers 7.12502
lthumb 12.584 4.91016
rfemur -3.81462 1.62588 34.7308
rtibia 19.6012
rfoot -11.6621 8.96376
rtoes -8.50987
lfemur -40.0752 7.10228 -14.4915
ltibia 47.5255
lfoot -13.6331 11.3825
ltoes -8.07984
320
root 9.26621 17.3455 26.9682 7.40891 -2.40117 -5.78802
lowerback -4.79915 1.79006 2.33983
upperback -2.0547 2.24872 3.57505
thorax 0.521449 1.12726 2.47932
lowerneck -20.4342 -3.14629 -12.3663
upperneck 23.7893 -3.25635 10.5074
head 11.5209 -1.2816 5.50642
rclavicle -6.31763e-015 -2.78299e-014
rhumerus -30.9923 22.46 -83.1777
rradius 40.3479
rwrist -18.592
rhand -26.6739 -29.4387
rfingers 7.12502
rthumb -0.105152 -59.4185
lclavicle -6.31763e-015 -2.78299e-014
lhumerus -44.2269 -11.1677 92.8609
lradius 23.4514
lwrist 1.82315
lhand -13.3695 -24.738
lfingers 7.12502
lthumb 12.737 4.85349
rfemur -2.8339 2.07196 33.7063
rtibia 19.0145
rfoot -11.5225 8.69512
rtoes -9.55622
lfemur -39.94 6.39865 -15.4013
ltibia 43.9678
lfoot -13.6037 11.629
ltoes -9.50218
